<svg width="26" height="26" viewBox="0 0 26 26" fill="none" xmlns="http://www.w3.org/2000/svg">
<path d="M8.64447 7.94447C8.64447 5.53788 10.5934 3.58892 13 3.58892C15.4066 3.58892 17.3556 5.53788 17.3556 7.94447C17.3556 10.3511 15.4066 12.3 13 12.3C10.5934 12.3 8.64447 10.3511 8.64447 7.94447ZM3.58892 19.3195C3.58892 18.7361 3.8756 18.1733 4.46899 17.6256C5.06713 17.0736 5.92906 16.5855 6.93931 16.1808C8.96095 15.3709 11.4002 14.9639 13 14.9639C14.5998 14.9639 17.0391 15.3709 19.0607 16.1808C20.071 16.5855 20.9329 17.0736 21.5311 17.6256C22.1245 18.1733 22.4111 18.7361 22.4111 19.3195V22.4111H3.58892V19.3195Z" stroke="#97ADCA" stroke-width="1.4"/>
</svg>
