<svg width="20" height="24" viewBox="0 0 20 24" fill="#F26E6E" xmlns="http://www.w3.org/2000/svg">
<path d="M17.72 5H0C0 4.46957 0.210714 3.96086 0.585786 3.58579C0.960859 3.21071 1.46957 3 2 3H18C18.5304 3 19.0391 3.21071 19.4142 3.58579C19.7893 3.96086 20 4.46957 20 5H17.72ZM6 1C6 0.734784 6.10536 0.48043 6.29289 0.292893C6.48043 0.105357 6.73478 0 7 0L13 0C13.2652 0 13.5196 0.105357 13.7071 0.292893C13.8946 0.48043 14 0.734784 14 1V2H6V1ZM8 7L9 20H7L6 7H8ZM12 7H14L13 20H11L12 7ZM3.91 20.421L4.12 22H15.95L16.16 20.421L17.49 7H19.76L18 22C18 22.5304 17.7893 23.0391 17.4142 23.4142C17.0391 23.7893 16.5304 24 16 24H4C3.46957 24 2.96086 23.7893 2.58579 23.4142C2.21071 23.0391 2 22.5304 2 22L0.23 7H2.57L3.91 20.421Z" fill="#F26E6E"/>
</svg>
