<svg width="25" height="19" viewBox="0 0 25 19" fill="none" xmlns="http://www.w3.org/2000/svg">
<path d="M24.3993 6.34965H23.7133V2.5638C23.7133 1.15017 22.6039 4.94045e-05 21.2403 4.94045e-05H20.4114C20.8284 0.403091 21.245 6.28077e-05 20.4114 4.94045e-05C15.8689 2.90178e-05 21.6194 0.0301194 15.7032 0.00010641L20.4114 4.94045e-05C11.4876 0 13.4265 4.94045e-05 5.32371 0L3.96535 4.94045e-05H2.47293C1.10934 4.94045e-05 0 1.15017 0 2.5638V16.4363C0 17.8499 1.10934 19 2.47293 19H21.2404C22.6039 19 23.7134 17.8499 23.7134 16.4363V12.6504H24.3994C24.7311 12.6504 25 12.3716 25 12.0278V6.97231C24.9999 6.62841 24.731 6.34965 24.3993 6.34965ZM22.5121 16.4363C22.5121 17.1633 21.9416 17.7547 21.2404 17.7547H2.47293C1.77171 17.7547 1.20124 17.1633 1.20124 16.4363V2.5638C1.20124 1.83678 1.77171 1.24537 2.47293 1.24537H21.2404C21.9416 1.24537 22.5121 1.83678 22.5121 2.5638V6.34965H20.1669C18.4913 6.34965 17.128 7.7629 17.128 9.50006C17.128 11.2372 18.4913 12.6505 20.1669 12.6505H22.5121V16.4363ZM23.7987 11.4051H20.1669C19.1536 11.4051 18.3292 10.5504 18.3292 9.5C18.3292 8.44957 19.1536 7.5949 20.1669 7.5949H23.7987V11.4051Z" fill="#97ADCA"/>
</svg>
